<?xml version="1.0" standalone="no"?>
<!DOCTYPE svg PUBLIC "-//W3C//DTD SVG 20010904//EN"
 "http://www.w3.org/TR/2001/REC-SVG-20010904/DTD/svg10.dtd">
<svg version="1.0" xmlns="http://www.w3.org/2000/svg"
 width="500.000000pt" height="600.000000pt" viewBox="0 0 500.000000 600.000000"
 preserveAspectRatio="xMidYMid meet">

<g transform="translate(0.000000,600.000000) scale(0.100000,-0.100000)"
fill="#000000" stroke="none">
<path d="M2423 5736 c-170 -32 -288 -90 -390 -192 -173 -172 -235 -432 -211
-879 28 -518 -28 -725 -289 -1056 -400 -509 -603 -956 -603 -1329 0 -52 3
-105 6 -117 6 -21 7 -21 57 10 45 29 58 32 126 32 62 0 85 -5 126 -27 120 -63
204 -172 348 -453 89 -176 209 -347 247 -353 33 -6 100 18 132 47 25 22 32 37
36 79 14 149 -144 341 -443 538 -226 149 -305 280 -305 509 0 108 19 206 65
335 45 124 234 481 235 441 0 -7 -36 -86 -80 -175 -123 -249 -157 -376 -147
-557 5 -111 26 -187 74 -268 32 -54 37 -46 46 73 9 100 50 284 89 395 17 47
68 169 115 271 215 469 304 724 329 947 6 61 6 61 -31 99 -40 40 -74 105 -75
141 0 49 32 102 86 143 l54 40 -30 42 c-92 127 -82 360 20 452 48 43 80 52
130 37 86 -26 160 -159 160 -288 0 -46 3 -54 16 -49 9 3 51 6 93 6 l78 0 6 73
c10 137 76 250 173 297 93 46 212 6 281 -94 48 -70 66 -140 61 -245 -3 -76 -8
-97 -38 -158 l-35 -70 35 -22 c75 -48 98 -122 64 -209 -10 -26 -17 -56 -15
-67 7 -47 119 -373 183 -534 38 -97 125 -291 193 -431 142 -293 205 -462 240
-636 6 -30 9 -32 62 -38 31 -4 58 -5 60 -2 17 17 37 135 36 221 -1 214 -95
445 -253 619 -86 95 -77 120 10 28 157 -165 277 -401 310 -605 12 -74 10 -254
-4 -287 -4 -11 18 -27 89 -63 165 -84 245 -180 232 -276 l-5 -40 50 -10 c27
-6 53 -9 58 -6 5 3 19 47 31 98 32 131 32 350 0 491 -73 319 -210 571 -534
980 -159 201 -210 274 -263 378 -81 161 -85 187 -94 578 -8 355 -16 435 -60
598 -76 277 -235 454 -470 523 -96 27 -355 36 -467 15z m289 -61 c137 -29 276
-124 327 -222 39 -78 58 -73 -286 -73 -170 0 -420 -3 -557 -7 l-249 -6 19 33
c50 89 179 191 304 240 124 49 307 64 442 35z m1055 -2095 l105 -145 -43 -3
c-52 -4 -47 -10 -142 168 -74 136 -97 185 -97 198 1 14 74 -76 177 -218z
m-2132 43 c-8 -32 -64 -131 -154 -270 l-66 -103 -42 0 c-24 0 -43 4 -43 8 0
32 282 392 307 392 3 0 2 -12 -2 -27z"/>
<path d="M2682 4804 c-39 -27 -65 -92 -66 -163 l-1 -65 88 -45 89 -46 19 23
c22 28 39 84 39 132 0 125 -93 217 -168 164z m62 -30 c26 -26 18 -34 -34 -34
-54 0 -62 10 -28 34 28 20 43 20 62 0z"/>
<path d="M2067 4768 c-59 -45 -60 -204 -2 -268 20 -22 16 -23 96 44 31 26 34
33 32 77 -3 57 -23 108 -54 138 -26 24 -48 27 -72 9z m58 -28 c18 -20 17 -20
-23 -20 -47 0 -49 2 -26 24 20 21 27 20 49 -4z"/>
<path d="M3604 2406 c-73 -33 -110 -109 -108 -226 2 -130 57 -246 141 -301 45
-29 53 -30 123 -27 100 6 204 55 294 139 53 49 66 68 76 108 10 44 9 55 -8 94
-55 125 -401 267 -518 213z m145 -65 c33 -10 82 -32 108 -47 l48 -29 -169 -3
c-93 -1 -171 0 -174 2 -12 13 24 70 52 82 42 18 64 17 135 -5z"/>
<path d="M3120 1214 c-96 -70 -304 -156 -445 -185 -79 -17 -285 -17 -360 0
-96 21 -220 70 -284 111 l-59 38 41 -81 c33 -66 41 -94 45 -154 4 -64 -4 -126
-24 -177 -7 -19 18 -17 231 20 208 37 328 40 523 15 90 -12 198 -21 240 -21
l77 0 1 118 c1 108 24 232 59 325 10 23 -3 21 -45 -9z"/>
</g>
</svg>
